<?xml version="1.0" standalone="no"?>
<!DOCTYPE svg PUBLIC "-//W3C//DTD SVG 20010904//EN"
 "http://www.w3.org/TR/2001/REC-SVG-20010904/DTD/svg10.dtd">
<svg version="1.0" xmlns="http://www.w3.org/2000/svg"
 width="225.000000pt" height="225.000000pt" viewBox="0 0 225.000000 225.000000"
 preserveAspectRatio="xMidYMid meet">

<g transform="translate(0.000000,225.000000) scale(0.100000,-0.100000)"
fill="#000000" stroke="none">
<path d="M556 1744 c-14 -14 -16 -79 -16 -573 0 -420 3 -560 12 -569 7 -7 24
-12 39 -12 22 0 30 -7 43 -40 9 -22 16 -42 16 -45 0 -2 -55 -6 -122 -8 -68 -1
1 -3 152 -3 151 0 256 1 232 3 -24 2 -42 7 -40 11 2 4 10 24 18 45 l14 37 218
0 218 0 20 -40 c11 -21 20 -41 20 -44 0 -3 -30 -7 -67 -9 -38 -2 22 -3 132 -4
110 0 190 2 178 4 -27 5 -27 3 -7 53 13 33 21 40 43 40 15 0 32 5 39 12 9 9
12 149 12 569 0 494 -2 559 -16 573 -14 14 -79 16 -569 16 -490 0 -555 -2
-569 -16z m726 -216 c245 -114 301 -425 111 -616 -29 -29 -78 -65 -110 -80
-51 -24 -70 -27 -158 -27 -87 0 -107 3 -156 26 -234 110 -301 412 -133 598 86
96 170 132 299 128 73 -2 101 -7 147 -29z m418 -288 c0 -5 -11 -10 -25 -10
-14 0 -25 5 -25 10 0 6 11 10 25 10 14 0 25 -4 25 -10z m0 -130 c0 -5 -11 -10
-25 -10 -14 0 -25 5 -25 10 0 6 11 10 25 10 14 0 25 -4 25 -10z"/>
<path d="M1122 1520 c0 -14 2 -19 5 -12 2 6 2 18 0 25 -3 6 -5 1 -5 -13z"/>
<path d="M980 1501 c0 -5 5 -13 10 -16 6 -3 10 -2 10 4 0 5 -4 13 -10 16 -5 3
-10 2 -10 -4z"/>
<path d="M1250 1495 c0 -8 2 -15 4 -15 2 0 6 7 10 15 3 8 1 15 -4 15 -6 0 -10
-7 -10 -15z"/>
<path d="M1073 1430 c-59 -12 -93 -32 -140 -83 -175 -190 14 -495 262 -422
113 32 191 138 189 255 -3 160 -153 281 -311 250z m125 -75 c100 -42 148 -155
107 -253 -68 -162 -292 -162 -360 0 -65 157 96 318 253 253z"/>
<path d="M1190 1260 c-14 -4 -39 -5 -56 -2 -45 6 -94 -38 -94 -84 0 -80 93
-114 145 -52 20 24 26 39 22 62 -2 17 0 42 5 55 10 29 10 30 -22 21z"/>
<path d="M1288 1175 c-3 -5 -9 -25 -13 -42 -7 -33 -44 -78 -80 -99 -11 -7 -17
-14 -14 -18 3 -3 21 4 40 16 37 25 83 106 77 135 -2 10 -6 14 -10 8z"/>
<path d="M865 1420 c3 -5 11 -10 16 -10 6 0 7 5 4 10 -3 6 -11 10 -16 10 -6 0
-7 -4 -4 -10z"/>
<path d="M1365 1420 c-3 -5 -2 -10 4 -10 5 0 13 5 16 10 3 6 2 10 -4 10 -5 0
-13 -4 -16 -10z"/>
<path d="M790 1311 c0 -5 7 -11 15 -15 8 -3 15 -1 15 3 0 5 -7 11 -15 15 -8 3
-15 1 -15 -3z"/>
<path d="M1435 1310 c-3 -5 -2 -10 4 -10 5 0 13 5 16 10 3 6 2 10 -4 10 -5 0
-13 -4 -16 -10z"/>
<path d="M768 1173 c6 -2 18 -2 25 0 6 3 1 5 -13 5 -14 0 -19 -2 -12 -5z"/>
<path d="M1458 1173 c6 -2 18 -2 25 0 6 3 1 5 -13 5 -14 0 -19 -2 -12 -5z"/>
<path d="M795 1040 c-3 -5 -2 -10 4 -10 5 0 13 5 16 10 3 6 2 10 -4 10 -5 0
-13 -4 -16 -10z"/>
<path d="M1440 1040 c20 -13 33 -13 25 0 -3 6 -14 10 -23 10 -15 0 -15 -2 -2
-10z"/>
<path d="M870 925 c-8 -9 -8 -15 -2 -15 12 0 26 19 19 26 -2 2 -10 -2 -17 -11z"/>
<path d="M1360 932 c0 -12 19 -26 26 -19 2 2 -2 10 -11 17 -9 8 -15 8 -15 2z"/>
<path d="M986 854 c-4 -9 -4 -19 -1 -22 2 -3 7 3 11 12 4 9 4 19 1 22 -2 3 -7
-3 -11 -12z"/>
<path d="M1250 863 c0 -4 5 -15 10 -23 8 -13 10 -13 10 2 0 9 -4 20 -10 23 -5
3 -10 3 -10 -2z"/>
<path d="M1122 830 c0 -14 2 -19 5 -12 2 6 2 18 0 25 -3 6 -5 1 -5 -13z"/>
<path d="M1043 493 c32 -2 81 -2 110 0 29 2 3 3 -58 3 -60 0 -84 -1 -52 -3z"/>
<path d="M1713 493 c26 -2 67 -2 90 0 23 2 2 3 -48 3 -49 0 -68 -1 -42 -3z"/>
</g>
</svg>
